HIERARCHY
ROOT Hips
{
	OFFSET -21.947001 39.810204 44.525997
	CHANNELS 6 Xposition Yposition Zposition Zrotation Xrotation Yrotation
	JOINT Chest
	{
		OFFSET -0.201599 0.334099 6.453201
		CHANNELS 6 Xposition Yposition Zposition Zrotation Xrotation Yrotation
		JOINT Chest2
		{
			OFFSET 0.000000 0.000000 3.568001
			CHANNELS 6 Xposition Yposition Zposition Zrotation Xrotation Yrotation
			JOINT Neck
			{
				OFFSET 0.000000 0.000000 8.296402
				CHANNELS 6 Xposition Yposition Zposition Zrotation Xrotation Yrotation
				JOINT Head
				{
					OFFSET 0.000000 0.000000 2.173901
					CHANNELS 6 Xposition Yposition Zposition Zrotation Xrotation Yrotation
					End Site
					{
						OFFSET 0.000000 0.000000 7.891998
					}
				}
			}
			JOINT LeftCollar
			{
				OFFSET 1.927601 0.221401 6.049000
				CHANNELS 6 Xposition Yposition Zposition Zrotation Xrotation Yrotation
				JOINT LeftShoulder
				{
					OFFSET 4.959700 0.000000 0.000000
					CHANNELS 6 Xposition Yposition Zposition Zrotation Xrotation Yrotation
					JOINT LeftElbow
					{
						OFFSET 0.000000 0.000000 -8.654202
						CHANNELS 6 Xposition Yposition Zposition Zrotation Xrotation Yrotation
						JOINT LeftWrist
						{
							OFFSET 0.000000 0.000000 -13.864101
							CHANNELS 6 Xposition Yposition Zposition Zrotation Xrotation Yrotation
							End Site
							{
								OFFSET 0.000000 0.000000 -2.173901
							}
						}
					}
				}
			}
			JOINT RightCollar
			{
				OFFSET -3.155701 -0.764999 6.687801
				CHANNELS 6 Xposition Yposition Zposition Zrotation Xrotation Yrotation
				JOINT RightShoulder
				{
					OFFSET -3.592899 0.000000 0.000000
					CHANNELS 6 Xposition Yposition Zposition Zrotation Xrotation Yrotation
					JOINT RightElbow
					{
						OFFSET 0.000000 0.000000 -10.352398
						CHANNELS 6 Xposition Yposition Zposition Zrotation Xrotation Yrotation
						JOINT RightWrist
						{
							OFFSET 0.000000 0.000000 -12.750301
							CHANNELS 6 Xposition Yposition Zposition Zrotation Xrotation Yrotation
							End Site
							{
								OFFSET 0.000000 0.000000 -2.173901
							}
						}
					}
				}
			}
		}
	}
	JOINT LeftHip
	{
		OFFSET 2.460600 -0.518101 -2.735500
		CHANNELS 6 Xposition Yposition Zposition Zrotation Xrotation Yrotation
		JOINT LeftKnee
		{
			OFFSET 0.000000 -0.000004 -17.005899
			CHANNELS 6 Xposition Yposition Zposition Zrotation Xrotation Yrotation
			JOINT LeftAnkle
			{
				OFFSET 0.000000 0.000000 -19.194401
				CHANNELS 6 Xposition Yposition Zposition Zrotation Xrotation Yrotation
				End Site
				{
					OFFSET 0.000000 -8.134600 0.000000
				}
			}
		}
	}
	JOINT RightHip
	{
		OFFSET -3.115499 -0.679600 -2.320301
		CHANNELS 6 Xposition Yposition Zposition Zrotation Xrotation Yrotation
		JOINT RightKnee
		{
			OFFSET 0.000000 -0.000004 -17.680401
			CHANNELS 6 Xposition Yposition Zposition Zrotation Xrotation Yrotation
			JOINT RightAnkle
			{
				OFFSET 0.000000 0.000000 -16.993797
				CHANNELS 6 Xposition Yposition Zposition Zrotation Xrotation Yrotation
				End Site
				{
					OFFSET 0.000000 -8.842300 0.000000
				}
			}
		}
	}
}
MOTION
Frames: 8
Frame Time: 0.041667
65.298515 7.292706 40.813095 2889.790747 5.107890 -19.466266 -0.201593 0.334097 6.453200 -5.719559 3.498032 -6.079802 -0.000004 0.000007 3.567999 14.044306 -2.406674 3.265824 -0.000011 -0.000003 8.296397 151.020277 -165.929856 204.196606 -0.000001 -0.000000 2.173898 0.047321 3.925798 -3.632815 1.927596 0.221397 6.048996 -6.142806 -8.432627 7.585290 4.959706 -0.000004 0.000006 176.191929 192.729401 50.589493 -0.000002 0.000000 -8.654205 48.172146 -16.832668 9.278237 -0.000003 -0.000001 -13.864092 4046.770150 50.355010 -164.637871 -3.155709 -0.765006 6.687799 45.953711 9.904867 7.672924 -3.592902 0.000002 -0.000003 -175.967707 179.010994 236.719385 -0.000006 -0.000002 -10.352398 -267.806035 -61.563405 -258.634457 0.000000 0.000000 -12.750293 193.898976 192.927873 -98.992131 2.460602 -0.518100 -2.735501 -1053.889337 -15.234015 27.235427 -0.000005 0.000006 -17.005898 840.102613 148.718818 -148.878207 -0.000002 -0.000001 -19.194397 205.246365 165.156665 181.783572 -3.115499 -0.679595 -2.320306 -381.063521 -38.009637 34.564370 -0.000011 0.000001 -17.680389 -823.577435 139.006125 -190.066392 0.000002 0.000001 -16.993799 1408.989123 39.122203 -373.962337
65.314217 7.299908 40.808193 2889.719931 5.079717 -19.448991 -0.201602 0.334097 6.453198 -5.640599 3.607677 -6.143289 0.000002 0.000005 3.567993 14.107506 -2.404747 3.284940 -0.000004 0.000001 8.296397 151.029922 -165.768254 204.295562 -0.000005 0.000001 2.173903 0.016044 3.858484 -3.666970 1.927599 0.221401 6.048991 -6.110606 -8.492617 7.707843 4.959696 -0.000001 0.000007 176.272730 192.570121 50.613949 -0.000008 0.000003 -8.654192 48.539081 -16.867613 9.339406 0.000004 0.000006 -13.864105 4046.642945 50.336472 -164.519491 -3.155705 -0.765006 6.687793 46.100184 10.038340 7.743162 -3.592907 0.000005 0.000011 -176.163215 179.396749 236.527593 -0.000010 -0.000007 -10.352384 -267.909334 -61.499495 -258.898402 -0.000006 0.000007 -12.750286 193.755460 193.221230 -99.319249 2.460597 -0.518097 -2.735502 -1053.847263 -15.176540 27.231396 -0.000005 0.000002 -17.005894 840.026770 148.766561 -148.867566 0.000001 0.000006 -19.194401 205.326360 165.148332 181.848883 -3.115499 -0.679592 -2.320302 -381.329134 -38.210421 34.378340 0.000002 0.000001 -17.680395 -823.620711 138.962056 -189.912180 0.000009 0.000005 -16.993790 1409.264626 39.134204 -373.903379
65.330803 7.307606 40.802391 2889.649334 5.075948 -19.439709 -0.201601 0.334098 6.453203 -5.558998 3.676115 -6.190548 0.000006 0.000008 3.567998 14.181346 -2.414895 3.302332 0.000000 0.000001 8.296395 151.155679 -165.665637 204.343223 -0.000002 -0.000004 2.173904 -0.117002 3.803832 -3.638948 1.927604 0.221398 6.048992 -6.144527 -8.519506 7.815931 4.959694 0.000000 0.000005 176.382423 192.477477 50.640044 -0.000009 -0.000001 -8.654198 48.879924 -16.886587 9.400722 0.000000 0.000005 -13.864093 4046.336078 50.333986 -164.319434 -3.155698 -0.765005 6.687795 46.221007 10.163819 7.789707 -3.592905 -0.000004 -0.000002 -176.296130 179.653960 236.424102 -0.000000 -0.000005 -10.352397 -267.723635 -61.640005 -258.910369 0.000002 0.000002 -12.750299 193.762563 193.138926 -99.369103 2.460596 -0.518102 -2.735502 -1053.783879 -15.144695 27.249513 -0.000000 -0.000003 -17.005898 839.974588 148.785822 -148.851651 -0.000004 0.000006 -19.194397 205.381480 165.145532 181.877433 -3.115501 -0.679596 -2.320300 -381.427434 -38.309722 34.297979 -0.000006 0.000000 -17.680395 -823.698411 138.951579 -189.778541 0.000004 0.000003 -16.993790 1409.484176 39.142940 -373.994111
65.346809 7.316513 40.796089 2889.605840 5.087571 -19.445941 -0.201601 0.334099 6.453207 -5.511590 3.689409 -6.187982 -0.000001 0.000001 3.567995 14.226873 -2.474071 3.304904 -0.000010 -0.000003 8.296394 151.324193 -165.651444 204.352293 -0.000002 -0.000001 2.173899 -0.209286 3.805661 -3.476988 1.927602 0.221398 6.048989 -6.217732 -8.488557 7.817019 4.959696 -0.000003 0.000002 176.593872 192.438831 50.727077 -0.000007 -0.000001 -8.654203 48.953205 -16.974635 9.439438 -0.000006 0.000003 -13.864088 4046.255646 50.287363 -164.142888 -3.155704 -0.765007 6.687795 46.289196 10.270363 7.742785 -3.592908 -0.000010 0.000001 -176.170837 179.651980 236.261899 0.000000 -0.000009 -10.352400 -268.014601 -61.492166 -259.033094 -0.000010 -0.000002 -12.750299 193.718508 193.128025 -99.359984 2.460597 -0.518102 -2.735493 -1053.715468 -15.139299 27.293931 -0.000009 -0.000006 -17.005901 839.871534 148.797570 -148.794879 -0.000002 0.000007 -19.194395 205.439509 165.179396 181.926228 -3.115506 -0.679599 -2.320294 -381.639197 -38.503996 34.155802 -0.000003 -0.000003 -17.680395 -823.876597 138.923616 -189.566723 -0.000001 0.000003 -16.993803 1409.775633 39.170431 -373.912668
65.358200 7.325806 40.789791 2889.597316 5.130005 -19.485392 -0.201599 0.334101 6.453203 -5.495843 3.646118 -6.133914 0.000010 0.000000 3.568001 14.279725 -2.537969 3.306309 0.000006 0.000001 8.296395 151.585667 -165.763118 204.266205 -0.000002 0.000002 2.173906 -0.384199 3.927520 -3.056685 1.927612 0.221402 6.048991 -6.316091 -8.434317 7.756363 4.959703 0.000000 0.000005 176.651518 192.482353 50.703974 -0.000008 -0.000006 -8.654202 48.646769 -16.844515 9.359005 0.000005 0.000003 -13.864094 4046.531476 50.367622 -164.383679 -3.155701 -0.765000 6.687792 46.298287 10.315121 7.673031 -3.592903 -0.000003 0.000001 -175.991845 179.610780 236.190154 -0.000006 -0.000005 -10.352394 -268.107984 -61.513442 -259.051590 -0.000011 0.000003 -12.750290 193.757003 192.920496 -99.229692 2.460594 -0.518097 -2.735497 -1053.614599 -15.163819 27.376874 -0.000001 0.000004 -17.005899 839.710068 148.810711 -148.690391 0.000006 0.000003 -19.194399 205.505571 165.218082 181.938590 -3.115488 -0.679592 -2.320297 -382.806968 -39.419095 33.400049 -0.000004 -0.000005 -17.680389 -824.060793 138.751345 -189.092968 -0.000001 0.000007 -16.993799 1410.505098 39.243415 -373.077964
65.376411 7.339005 40.780495 2889.641247 5.191584 -19.488512 -0.201593 0.334095 6.453203 -5.515623 3.574058 -6.143668 0.000006 0.000003 3.567998 14.349059 -2.576632 3.315110 -0.000010 0.000006 8.296393 151.657643 -165.760440 204.263678 -0.000007 0.000002 2.173897 -0.508584 4.011292 -2.899534 1.927596 0.221409 6.048997 -6.432164 -8.385959 7.681222 4.959699 -0.000001 0.000001 176.742018 192.615624 50.761088 0.000000 0.000000 -8.654198 48.357152 -16.808612 9.300846 0.000001 -0.000000 -13.864096 4046.753539 50.336732 -164.694548 -3.155709 -0.764997 6.687796 46.261933 10.338200 7.778616 -3.592905 0.000005 0.000012 -175.840392 179.688384 235.963857 -0.000001 -0.000002 -10.352390 -268.093340 -61.586716 -259.082435 -0.000003 -0.000002 -12.750288 192.257503 192.211495 -99.584998 2.460602 -0.518101 -2.735498 -1053.605310 -15.252876 27.458351 -0.000004 -0.000006 -17.005898 839.549258 148.826639 -148.589823 -0.000012 0.000006 -19.194401 205.620700 165.255348 181.942320 -3.115486 -0.679602 -2.320301 -383.103507 -39.685773 33.202909 -0.000007 -0.000000 -17.680389 -824.286463 138.715418 -188.901558 -0.000004 0.000003 -16.993801 1410.759508 39.262437 -372.856093
65.392311 7.350708 40.771595 2889.700479 5.249077 -19.469787 -0.201597 0.334095 6.453197 -5.550635 3.501591 -6.173721 0.000004 0.000001 3.567996 14.397504 -2.609969 3.319029 -0.000015 0.000003 8.296395 151.572525 -165.710539 204.284169 -0.000002 -0.000001 2.173907 -0.477965 4.134077 -2.798347 1.927590 0.221403 6.048995 -6.529417 -8.336094 7.575121 4.959691 -0.000001 0.000009 176.918674 192.823890 50.862301 -0.000007 -0.000001 -8.654203 48.464434 -16.854825 9.429064 0.000002 0.000005 -13.864093 4046.548087 50.307547 -164.724205 -3.155714 -0.765000 6.687797 46.187580 10.339008 7.921173 -3.592899 -0.000000 -0.000002 -175.598098 179.683617 235.719609 -0.000002 -0.000007 -10.352390 -268.213660 -61.537628 -259.173905 -0.000008 -0.000000 -12.750293 192.264771 191.966005 -99.281758 2.460596 -0.518101 -2.735493 -1053.588590 -15.343777 27.523195 -0.000006 -0.000004 -17.005894 839.335501 148.849151 -148.475444 -0.000009 0.000002 -19.194395 205.750351 165.294321 181.950420 -3.115494 -0.679598 -2.320304 -383.350432 -39.880874 33.027974 -0.000005 -0.000000 -17.680395 -824.528962 138.694245 -188.735189 -0.000000 0.000005 -16.993797 1410.938733 39.274459 -372.667088
65.405205 7.360909 40.763294 2889.787031 5.309315 -19.397309 -0.201586 0.334102 6.453198 -5.597650 3.433064 -6.298469 0.000007 0.000004 3.567991 14.414117 -2.645179 3.318976 0.000002 0.000001 8.296394 151.606827 -165.649122 204.350695 -0.000003 0.000001 2.173896 -0.508847 4.229460 -2.663993 1.927604 0.221404 6.048988 -6.530577 -8.322371 7.468421 4.959704 -0.000005 -0.000004 176.887788 193.185794 50.977738 0.000000 -0.000004 -8.654207 48.501699 -16.890619 9.594385 0.000003 0.000002 -13.864103 4046.218053 50.281182 -164.588120 -3.155700 -0.765005 6.687789 46.137576 10.345166 8.122329 -3.592902 0.000002 0.000000 -175.403151 179.655067 235.408316 -0.000005 -0.000007 -10.352390 -268.341194 -61.441581 -259.250922 -0.000004 -0.000003 -12.750292 192.232915 191.903659 -99.107472 2.460610 -0.518096 -2.735501 -1053.659952 -15.428159 27.486580 -0.000001 -0.000003 -17.005901 838.875419 149.090995 -148.292955 -0.000001 0.000006 -19.194397 206.092502 165.345807 182.151720 -3.115486 -0.679590 -2.320299 -384.021785 -40.296501 32.539807 -0.000010 0.000000 -17.680397 -824.788673 138.629686 -188.469494 0.000004 0.000005 -16.993799 1411.247894 39.304829 -372.163703
